<?xml version="1.0" standalone="no"?>
<!DOCTYPE svg PUBLIC "-//W3C//DTD SVG 20010904//EN"
 "http://www.w3.org/TR/2001/REC-SVG-20010904/DTD/svg10.dtd">
<svg version="1.0" xmlns="http://www.w3.org/2000/svg"
 width="578.000000pt" height="350.000000pt" viewBox="0 0 578.000000 350.000000"
 preserveAspectRatio="xMidYMid meet">

<g transform="translate(0.000000,350.000000) scale(0.100000,-0.100000)"
fill="#000000" stroke="none">
<path d="M1786 2910 c-16 -5 -58 -38 -92 -74 -72 -75 -144 -115 -220 -123 -49
-5 -61 -2 -169 52 -113 55 -119 57 -173 51 -32 -4 -58 -11 -60 -16 -2 -6 -14
-10 -26 -10 -20 0 -67 -28 -86 -50 -18 -22 -161 -52 -182 -39 -7 5 -22 9 -34
9 -11 0 -47 13 -79 30 -32 16 -61 27 -65 25 -4 -3 -11 6 -14 20 -4 16 -11 22
-21 19 -19 -8 -19 -19 -1 -36 7 -8 17 -24 20 -36 4 -12 11 -22 14 -22 4 0 9
-11 10 -25 1 -14 9 -42 18 -63 10 -23 15 -65 15 -113 -2 -181 -64 -326 -156
-365 -41 -17 -102 -15 -109 3 -9 22 -26 14 -26 -12 0 -16 6 -25 15 -25 8 0 15
-4 15 -10 0 -5 10 -20 23 -34 12 -13 27 -30 33 -38 62 -74 277 -248 307 -248
4 0 26 -9 48 -20 117 -56 416 -75 584 -36 138 31 297 118 395 215 8 8 47 38
85 67 122 90 167 157 201 299 12 52 15 98 11 180 -7 136 -19 190 -64 283 -55
114 -137 167 -217 142z m105 -113 c146 -99 155 -470 14 -607 -84 -81 -189 -17
-236 145 -17 61 -18 253 -1 310 18 61 73 138 112 157 46 24 70 23 111 -5z"/>
<path d="M440 2865 c0 -8 -9 -15 -20 -15 -11 0 -20 -3 -20 -8 0 -4 19 -8 43
-7 23 0 52 -3 64 -5 35 -8 31 14 -4 25 -18 5 -33 13 -33 17 0 4 -7 8 -15 8 -8
0 -15 -7 -15 -15z"/>
<path d="M370 2840 c0 -5 5 -10 10 -10 6 0 10 5 10 10 0 6 -4 10 -10 10 -5 0
-10 -4 -10 -10z"/>
<path d="M231 581 c-6 -11 -26 -25 -46 -31 -39 -13 -85 -62 -85 -91 0 -32 30
-22 37 12 5 27 50 69 74 69 3 0 4 -37 1 -82 -3 -56 -10 -86 -19 -93 -13 -10
-13 -13 0 -23 13 -11 12 -38 -4 -102 -3 -9 4 -16 18 -18 22 -3 26 4 37 69 6
34 10 37 48 43 57 9 108 61 108 110 0 69 -44 116 -109 116 -20 0 -31 5 -31 14
0 24 -18 28 -29 7z m100 -70 c58 -58 26 -161 -51 -161 l-30 0 0 95 0 95 26 0
c15 0 38 -12 55 -29z"/>
<path d="M2680 558 c-11 -18 -22 -52 -26 -75 -3 -24 -15 -55 -26 -69 -15 -19
-19 -33 -14 -60 8 -37 -17 -94 -41 -94 -20 0 -16 97 6 155 37 96 36 174 -1
160 -25 -10 -38 -50 -50 -157 -9 -81 -16 -106 -35 -129 -38 -44 -103 -36 -103
13 0 12 8 18 23 18 45 0 91 66 67 95 -22 27 -75 18 -105 -17 -45 -54 -73 -72
-90 -58 -19 16 -19 64 0 80 12 10 18 10 30 0 8 -7 15 -8 15 -2 0 21 -27 33
-53 23 -30 -12 -47 -39 -47 -76 0 -34 -39 -105 -58 -105 -11 0 -13 12 -7 60 7
59 7 60 -18 60 -22 0 -25 4 -24 27 1 19 -3 28 -16 31 -23 5 -33 -24 -17 -53
11 -20 9 -30 -15 -74 -48 -88 -68 -59 -44 63 7 31 9 59 6 63 -14 13 -37 -21
-47 -72 -12 -57 -42 -105 -66 -105 -17 0 -19 76 -3 133 6 22 8 41 6 44 -12 11
-45 -19 -50 -47 -9 -41 -42 -42 -50 -1 -15 75 -103 62 -167 -24 -22 -30 -43
-55 -46 -55 -4 0 -3 29 1 65 3 36 3 65 -2 65 -17 0 -33 -24 -33 -49 0 -33 -31
-102 -54 -120 -32 -27 -40 0 -27 84 7 42 10 79 7 82 -3 4 -15 -2 -26 -12 -17
-16 -20 -31 -20 -107 0 -85 1 -88 23 -88 23 0 54 27 75 65 10 18 11 17 11 -10
0 -21 -14 -47 -49 -90 -40 -48 -50 -67 -50 -96 0 -40 11 -49 61 -49 43 0 60
34 66 132 4 62 11 91 27 115 25 39 36 42 36 9 0 -13 9 -35 21 -50 40 -51 130
-22 144 47 7 30 20 46 38 47 4 0 7 -20 7 -44 0 -24 3 -51 6 -60 11 -28 50 -18
83 22 17 20 31 33 30 27 -1 -5 -1 -22 0 -37 1 -23 6 -28 26 -28 27 0 65 48 86
108 16 47 31 39 28 -15 -4 -84 -2 -93 26 -93 19 0 32 11 56 50 25 40 34 48 45
39 11 -9 10 -16 -8 -39 -23 -32 -17 -50 16 -50 31 0 48 22 45 58 -3 29 14 62
32 62 5 0 9 -15 9 -34 0 -19 9 -45 21 -60 28 -36 69 -34 113 4 l35 31 3 -28
c2 -22 9 -29 30 -31 20 -2 30 4 44 27 10 17 21 31 24 31 3 0 4 -45 2 -99 -4
-107 6 -141 38 -141 41 0 55 45 55 172 0 82 4 118 11 118 7 0 22 9 35 20 l24
20 -39 -16 c-21 -8 -39 -14 -41 -12 -21 25 -24 50 -10 77 20 39 19 55 -1 18
-22 -41 -25 -30 -10 41 15 72 36 104 37 57 0 -17 3 -24 6 -17 7 18 -5 62 -17
62 -6 0 -19 -14 -30 -32z m-80 -14 c0 -25 -22 -108 -32 -119 -8 -9 -6 17 8
103 5 32 24 45 24 16z m-810 -143 c16 -31 12 -51 -10 -51 -22 0 -44 34 -36 56
8 20 34 17 46 -5z m664 3 c3 -9 6 -20 6 -25 0 -15 -39 -49 -56 -49 -13 0 -15
7 -10 32 10 53 46 78 60 42z m-716 -61 c9 -7 27 -13 40 -13 21 0 23 -3 18 -27
-7 -29 -31 -53 -52 -53 -38 0 -64 75 -43 125 l13 30 3 -25 c3 -14 12 -31 21
-37z m952 16 c0 -5 -7 -9 -15 -9 -9 0 -12 6 -9 15 6 15 24 11 24 -6z m14 -51
c19 -74 -3 -238 -33 -238 -12 0 -16 242 -4 253 13 14 31 6 37 -15z m-417 -52
c-8 -19 -37 -21 -37 -3 0 7 5 18 12 25 15 15 33 -1 25 -22z m-721 -73 c-3 -21
-6 -50 -6 -65 0 -32 -25 -59 -45 -52 -25 10 -18 71 13 115 34 49 46 49 38 2z"/>
<path d="M2945 555 c-28 -27 -33 -75 -11 -115 13 -23 12 -27 -25 -61 -48 -44
-54 -92 -15 -128 29 -27 103 -33 153 -12 27 11 35 10 64 -8 35 -22 84 -28 93
-12 3 5 -16 20 -42 33 -35 18 -46 30 -44 44 13 71 13 91 -1 102 -15 12 -47 7
-47 -8 0 -4 7 -10 15 -14 20 -7 20 -66 1 -66 -8 0 -33 23 -57 51 -39 46 -41
52 -25 61 36 20 75 64 82 90 14 63 -90 95 -141 43z m95 -14 c5 -11 10 -27 10
-36 0 -16 -57 -75 -72 -75 -4 0 -13 18 -19 40 -17 55 -1 90 40 90 20 0 34 -7
41 -19z m-27 -223 l46 -57 -33 -11 c-53 -17 -116 21 -116 71 0 22 41 73 50 62
4 -4 28 -34 53 -65z"/>
<path d="M5567 562 c-12 -13 -21 -43 -24 -80 l-6 -60 -39 5 c-49 7 -80 -19
-102 -85 -16 -45 -41 -82 -57 -82 -4 0 -5 38 -2 85 6 81 5 85 -15 85 -19 0
-42 -22 -85 -80 l-18 -25 6 29 c17 80 17 86 6 86 -25 0 -51 -40 -51 -81 0 -40
-30 -99 -51 -99 -12 0 -12 86 1 129 12 42 4 57 -20 36 -27 -24 -42 -167 -20
-189 15 -15 54 2 72 31 l17 28 1 -32 c0 -26 4 -33 20 -33 16 0 20 7 20 33 0
34 53 127 72 127 5 0 9 -28 8 -62 -2 -99 -3 -98 25 -98 19 0 31 10 48 37 18
31 22 34 25 18 12 -63 69 -73 104 -17 l23 37 3 -38 c3 -35 6 -38 29 -35 20 2
34 17 59 63 19 33 34 65 33 70 0 6 -9 -8 -21 -30 -23 -45 -47 -75 -60 -75 -13
0 -9 106 8 180 8 38 14 85 12 105 -3 37 -3 37 -21 17z m-53 -148 c22 -8 20
-46 -5 -105 -22 -50 -51 -65 -63 -33 -14 35 -6 100 14 122 22 23 29 26 54 16z"/>
<path d="M3662 545 c-11 -14 -23 -43 -27 -64 -5 -29 -12 -41 -28 -45 -48 -13
-50 -10 -43 54 5 38 3 60 -3 60 -16 0 -31 -35 -31 -70 0 -23 -5 -33 -20 -37
-25 -7 -26 -19 -2 -32 13 -8 15 -14 6 -28 -14 -23 -44 -29 -44 -9 0 8 -10 27
-23 42 -21 24 -28 26 -61 20 -73 -14 -112 -89 -82 -159 31 -76 142 -53 161 33
3 15 16 32 28 37 21 10 22 9 22 -51 0 -58 1 -61 26 -64 19 -2 33 4 48 24 11
15 21 32 20 38 0 6 -7 1 -16 -11 -27 -40 -43 -29 -43 30 0 75 8 94 42 106 17
6 33 11 34 11 7 0 4 -69 -4 -92 -5 -13 -7 -42 -4 -65 3 -33 8 -43 22 -43 13 0
19 11 24 41 6 39 52 118 68 119 4 0 8 -35 10 -77 3 -68 5 -78 23 -82 13 -2 29
8 47 30 15 18 28 28 28 21 0 -22 40 -52 69 -52 39 0 73 30 102 89 13 28 27 51
31 51 5 0 8 -31 8 -70 0 -68 1 -70 25 -70 20 0 33 11 57 50 24 39 34 48 44 39
11 -9 10 -16 -7 -40 -23 -33 -18 -49 16 -49 32 0 56 35 45 66 -8 20 -4 27 32
53 23 17 38 31 33 31 -4 0 -23 -12 -42 -26 -27 -21 -37 -23 -48 -14 -19 16
-19 51 -1 75 12 16 16 17 30 6 9 -7 16 -9 16 -3 0 5 -6 15 -14 21 -11 10 -21
9 -45 -4 -17 -8 -31 -17 -31 -19 0 -29 -24 -113 -37 -131 -32 -43 -43 -32 -36
35 6 59 5 60 -19 60 -21 0 -24 4 -21 23 6 31 -19 53 -37 32 -10 -12 -10 -21 0
-44 30 -73 -87 -175 -128 -111 -15 25 -8 40 19 40 31 0 71 46 67 78 -3 23 -8
27 -40 30 -46 4 -72 -20 -88 -79 -13 -47 -37 -89 -52 -89 -6 0 -9 32 -7 83 4
78 3 82 -17 85 -16 2 -31 -9 -55 -43 -40 -55 -54 -42 -24 23 53 112 36 212
-23 137z m43 -42 c-4 -21 -13 -51 -21 -68 -14 -29 -14 -28 -9 29 6 63 10 76
27 76 6 0 8 -13 3 -37z m-276 -114 c14 -40 14 -39 -7 -39 -25 0 -42 19 -42 47
0 36 36 30 49 -8z m509 2 c4 -27 -24 -61 -51 -61 -16 0 -18 5 -12 28 8 32 34
64 49 59 6 -2 12 -14 14 -26z m-570 -44 c9 -8 28 -17 42 -19 19 -2 24 -8 22
-23 -5 -27 -31 -55 -53 -55 -38 0 -63 83 -42 137 7 16 8 16 11 -3 2 -12 11
-29 20 -37z m842 -76 c0 -22 -15 -35 -30 -26 -7 4 -7 13 0 26 14 25 30 25 30
0z"/>
<path d="M810 531 c-5 -11 -10 -34 -10 -51 0 -23 -5 -33 -20 -37 -25 -7 -26
-19 -2 -32 13 -8 15 -14 6 -28 -18 -29 -39 -26 -55 8 -21 48 -41 56 -91 39
-39 -14 -46 -22 -81 -92 -48 -98 -71 -104 -61 -18 6 59 6 60 -18 60 -21 0 -24
4 -21 23 6 31 -19 53 -37 32 -16 -19 1 -65 25 -65 12 0 15 -14 15 -70 0 -68 1
-70 25 -70 17 0 32 11 48 35 l24 36 21 -36 c18 -30 27 -35 57 -35 27 0 44 8
66 29 16 16 29 36 29 45 0 14 37 56 49 56 3 0 6 -28 6 -62 0 -61 1 -63 26 -66
19 -2 33 4 48 24 11 15 21 32 20 38 0 6 -7 1 -16 -11 -27 -40 -43 -29 -43 30
0 74 8 94 41 106 39 13 37 22 -2 14 l-32 -6 7 61 c7 63 -3 81 -24 43z m-112
-143 c11 -40 9 -42 -21 -34 -39 9 -44 66 -6 66 12 0 21 -10 27 -32z m-56 -49
c7 -5 23 -9 36 -9 26 0 29 -25 6 -58 -35 -50 -84 -10 -84 69 0 54 12 72 22 33
4 -15 13 -31 20 -35z"/>
<path d="M1273 543 c-7 -2 -15 -26 -19 -53 -5 -39 -11 -50 -27 -52 -19 -3 -20
-4 -4 -20 24 -24 21 -59 -9 -104 -32 -47 -41 -54 -76 -54 -20 0 -28 7 -37 31
-20 57 16 140 54 125 11 -4 14 -13 9 -31 -8 -32 13 -34 25 -2 11 28 -4 47 -36
47 -41 0 -64 -20 -90 -78 -14 -32 -32 -65 -40 -74 -22 -25 -68 -23 -87 4 -17
24 -13 38 13 38 10 0 30 10 45 21 21 16 26 28 24 53 -3 27 -7 31 -37 34 -42 4
-77 -26 -91 -79 -28 -104 79 -163 141 -79 l22 29 16 -32 c12 -25 23 -33 49
-35 36 -4 87 27 97 58 11 34 25 22 25 -21 0 -38 1 -40 28 -37 20 2 36 16 60
52 17 26 32 56 32 65 0 9 -13 -6 -28 -34 -15 -27 -36 -51 -46 -53 -17 -4 -18
0 -12 43 3 26 6 60 6 75 0 22 7 30 38 43 l37 16 -37 -5 -36 -6 5 61 c3 34 4
61 2 60 -2 0 -10 -3 -16 -6z m-283 -150 c0 -32 -26 -63 -52 -63 -15 0 -18 5
-13 23 19 63 65 92 65 40z"/>
<path d="M4622 438 c-15 -15 -15 -33 0 -57 10 -16 7 -27 -18 -67 -40 -66 -54
-67 -54 -7 0 26 4 63 9 80 11 36 -1 52 -24 33 -9 -7 -15 -8 -20 0 -12 20 -70
11 -95 -15 -31 -33 -39 -114 -16 -150 24 -36 61 -33 85 6 l19 32 4 -29 c7 -64
66 -33 108 56 13 28 28 50 33 50 5 0 8 -19 7 -42 -5 -87 -2 -98 25 -98 19 0
31 10 46 35 l21 35 22 -32 c31 -47 85 -51 126 -9 17 17 30 40 30 54 0 20 16
37 35 37 2 0 5 -26 7 -57 3 -54 5 -58 29 -61 19 -2 33 4 48 24 11 15 21 32 21
38 0 6 -9 0 -19 -13 -28 -37 -54 -22 -47 27 3 20 8 59 12 87 l7 49 -24 -15
c-13 -9 -26 -27 -29 -40 -9 -36 -36 -36 -43 0 -17 81 -142 53 -167 -38 -11
-41 -45 -91 -62 -91 -6 0 -8 21 -3 60 l7 60 -27 0 c-21 0 -25 4 -21 18 9 26
-15 57 -32 40z m268 -37 c17 -33 12 -53 -11 -49 -27 4 -44 30 -36 52 9 22 34
20 47 -3z m-382 -3 c17 -17 15 -42 -10 -93 -25 -52 -53 -60 -68 -19 -15 39
-12 69 11 98 22 28 48 33 67 14z m330 -55 c9 -7 26 -13 39 -13 16 0 23 -6 23
-20 0 -23 -33 -60 -54 -60 -40 0 -66 74 -45 125 l13 30 3 -25 c3 -14 12 -31
21 -37z"/>
</g>
</svg>
